#usda 1.0
(
    doc = """Generated from Composed Stage of root layer 
"""
    metersPerUnit = 0.001
    upAxis = "Y"
)

def Xform "Rhino"
{
    def Xform "Geometry"
    {
        def Xform "Default"
        {
            def Mesh "mesh0"
            {
                float3[] extent = [(-53.08413, 0, 47.132526), (3.1530988, 26.299238, 84.28987)]
                int[] faceVertexCounts = [4, 4, 4, 4, 3, 3, 3, 3]
                int[] faceVertexIndices = [0, 2, 3, 1, 4, 6, 7, 5, 8, 10, 11, 9, 12, 14, 15, 13, 17, 16, 19, 19, 18, 17, 21, 23, 20, 23, 21, 22]
                normal3f[] normals = [(0, 0, 1), (0, 0, 1), (0, 0, 1), (0, 0, 1), (1, 0, 0), (1, 0, 0), (1, 0, 0), (1, 0, 0), (0, 0, -1), (0, 0, -1), (0, 0, -1), (0, 0, -1), (-1, 0, 0), (-1, 0, 0), (-1, 0, 0), (-1, 0, 0), (0, -1, 0), (0, -1, 0), (0, -1, 0), (0, -1, 0), (0, 1, 0), (0, 1, 0), (0, 1, 0), (0, 1, 0)]
                point3f[] points = [(-53.08413, 0, 84.28987), (-53.08413, 26.299238, 84.28987), (3.1530988, 0, 84.28987), (3.1530988, 26.299238, 84.28987), (3.1530988, 0, 84.28987), (3.1530988, 26.299238, 84.28987), (3.1530988, 0, 47.132526), (3.1530988, 26.299238, 47.132526), (3.1530988, 0, 47.132526), (3.1530988, 26.299238, 47.132526), (-53.08413, 0, 47.132526), (-53.08413, 26.299238, 47.132526), (-53.08413, 0, 47.132526), (-53.08413, 26.299238, 47.132526), (-53.08413, 0, 84.28987), (-53.08413, 26.299238, 84.28987), (-53.08413, 0, 84.28987), (3.1530988, 0, 84.28987), (3.1530988, 0, 47.132526), (-53.08413, 0, 47.132526), (-53.08413, 26.299238, 84.28987), (3.1530988, 26.299238, 84.28987), (3.1530988, 26.299238, 47.132526), (-53.08413, 26.299238, 47.132526)]
                texCoord2f[] primvars:st1 = [(0, 0), (0, 0.63069344), (0.3010733, 0), (0.3010733, 0.63069344), (0.3010733, 0), (0.3010733, 0.63069344), (0.5, 0), (0.5, 0.63069344), (0.5, 0), (0.5, 0.63069344), (0.8010733, 0), (0.8010733, 0.63069344), (0.8010733, 0), (0.8010733, 0.63069344), (1, 0), (1, 0.63069344), (0, 1), (0.3010733, 1), (0.3010733, 0.63069403), (0, 0.63069403), (0.6989267, 0.63069403), (1, 0.63069403), (1, 1), (0.6989267, 1)] (
                    interpolation = "vertex"
                )
            }
        }
    }
}

